<svg width="26" height="26" viewBox="0 0 26 26" fill="none" xmlns="http://www.w3.org/2000/svg">
<rect x="1" y="1" width="24" height="24" rx="12" stroke="white"/>
<g clip-path="url(#clip0_40_242)">
<path d="M18.7491 9.95647C18.6843 9.69761 18.5523 9.46042 18.3665 9.26888C18.1807 9.07733 17.9477 8.93821 17.6909 8.86557C16.7527 8.63647 13 8.63647 13 8.63647C13 8.63647 9.24728 8.63647 8.3091 8.88738C8.05232 8.96003 7.81927 9.09915 7.63347 9.2907C7.44767 9.48224 7.31571 9.71943 7.25092 9.97829C7.07921 10.9304 6.99523 11.8963 7.00001 12.8637C6.99389 13.8385 7.07788 14.8117 7.25092 15.771C7.32235 16.0218 7.45726 16.25 7.64263 16.4335C7.828 16.6169 8.05755 16.7495 8.3091 16.8183C9.24728 17.0692 13 17.0692 13 17.0692C13 17.0692 16.7527 17.0692 17.6909 16.8183C17.9477 16.7456 18.1807 16.6065 18.3665 16.415C18.5523 16.2234 18.6843 15.9863 18.7491 15.7274C18.9195 14.7824 19.0035 13.8239 19 12.8637C19.0061 11.889 18.9221 10.9158 18.7491 9.95647Z" stroke="white" stroke-width="1.09091" stroke-linecap="round" stroke-linejoin="round"/>
<path d="M11.7727 14.6474L14.9091 12.8637L11.7727 11.0801V14.6474Z" stroke="white" stroke-width="1.09091" stroke-linecap="round" stroke-linejoin="round"/>
</g>
<defs>
<clipPath id="clip0_40_242">
<rect width="13.0909" height="13.0909" fill="white" transform="translate(6.45453 6.45459)"/>
</clipPath>
</defs>
</svg>
